<svg width="367" height="220" xmlns="http://www.w3.org/2000/svg" xmlns:xlink="http://www.w3.org/1999/xlink" xml:space="preserve" overflow="hidden"><g transform="translate(-3180 -385)"><g><g><g><g><path d="M115.208 79.0001C115.208 60.2375 102.7 50.3625 89.3688 42.7917 102.7 35.0563 115.208 25.3459 115.208 6.58334L105.333 6.58334C105.333 9.54584 104.84 12.3438 104.017 14.8125L53.9834 14.8125C53.1605 12.3438 52.6667 9.54584 52.6667 6.58334L42.7917 6.58334C42.7917 25.3459 55.3 35.0563 68.6313 42.7917 55.3 50.3625 42.7917 60.2375 42.7917 79.0001 42.7917 97.9272 55.3 107.802 68.6313 115.373 55.3 122.944 42.7917 132.654 42.7917 151.417L52.6667 151.417C52.6667 148.29 53.1605 145.656 53.9834 143.188L104.017 143.188C104.84 145.656 105.333 148.29 105.333 151.417L115.208 151.417C115.208 132.654 102.7 122.944 89.3688 115.373 102.7 107.802 115.208 97.9272 115.208 79.0001ZM52.6667 79.0001C52.6667 76.0376 53.1605 73.2396 53.9834 70.7709L104.181 70.7709C105.004 73.2396 105.498 76.0376 105.498 79.0001 105.498 81.9626 105.004 84.7605 104.181 87.2292L53.9834 87.2292C53.1605 84.7605 52.6667 81.9626 52.6667 79.0001ZM60.2375 24.6875 97.598 24.6875C92.8251 29.4604 86.0772 33.2459 78.8355 37.1959 71.7584 33.2459 65.0105 29.4604 60.2375 24.6875ZM79.0001 48.3875C86.2417 52.3375 92.9897 56.123 97.7626 60.8959L60.2375 60.8959C65.0105 56.123 71.7584 52.173 79.0001 48.3875ZM79.0001 120.969C86.2417 124.754 92.8251 128.54 97.598 133.313L60.4021 133.313C65.175 128.54 71.7584 124.754 79.0001 120.969ZM79.0001 109.777C71.5938 105.827 64.8459 102.042 60.073 97.1042L97.9272 97.1042C93.1542 102.042 86.4063 105.827 79.0001 109.777Z" fill="#000000" fill-rule="nonzero" fill-opacity="1" transform="matrix(1 0 0 1.08861 3388 406)"/></g></g></g><g><g><g><path d="M181.5 162.938 181.5 47.4375 173.25 47.4375 173.25 66 160.875 66 160.875 37.125C160.875 32.7938 161.7 31.1438 161.906 30.7312 163.762 30.3188 165 28.6687 165 26.6062 165 24.3375 163.144 22.4812 160.875 22.6875L128.081 22.6875C125.812 22.4812 123.956 24.3375 123.75 26.6062 123.75 28.4625 124.987 30.1125 126.844 30.7312 127.05 31.1438 127.875 32.7938 127.875 37.125L127.875 66 115.5 66 115.5 37.125C115.5 32.7938 116.325 31.1438 116.531 30.7312 118.388 30.3188 119.625 28.6687 119.625 26.6062 119.625 24.3375 117.769 22.4812 115.5 22.6875L82.7062 22.6875C80.4375 22.4812 78.5812 24.3375 78.375 26.6062 78.375 28.4625 79.6125 30.1125 81.4688 30.7312 81.675 31.1438 82.5 32.7938 82.5 37.125L82.5 66 70.125 66 70.125 37.125C70.125 32.7938 70.95 31.1438 71.1562 30.7312 73.0125 30.3188 74.25 28.6687 74.25 26.6062 74.25 24.3375 72.3937 22.4812 70.125 22.6875L37.3312 22.6875C35.0625 22.4812 33.2062 24.3375 33 26.6062 33 28.4625 34.2375 30.1125 36.0938 30.7312 36.3 31.1438 37.125 32.7938 37.125 37.125L37.125 66 24.75 66 24.75 47.4375 16.5 47.4375 16.5 162.938 8.25 162.938 8.25 175.312 189.75 175.312 189.75 162.938 181.5 162.938ZM153.244 30.9375C152.831 32.5875 152.625 34.65 152.625 37.125L152.625 55.6875C152.625 55.6875 148.5 53.625 144.375 53.625 140.25 53.625 136.125 55.6875 136.125 55.6875L136.125 37.125C136.125 34.65 135.919 32.5875 135.506 30.9375L153.244 30.9375ZM107.869 30.9375C107.456 32.5875 107.25 34.65 107.25 37.125L107.25 55.6875C107.25 55.6875 103.125 53.625 99 53.625 94.875 53.625 90.75 55.6875 90.75 55.6875L90.75 37.125C90.75 34.65 90.5438 32.5875 90.1312 30.9375L107.869 30.9375ZM62.4937 30.9375C62.0812 32.5875 61.875 34.65 61.875 37.125L61.875 55.6875C61.875 55.6875 57.75 53.625 53.625 53.625 49.5 53.625 45.375 55.6875 45.375 55.6875L45.375 37.125C45.375 34.65 45.1688 32.5875 44.7563 30.9375L62.4937 30.9375ZM173.25 162.938 24.75 162.938 24.75 74.25 37.125 74.25 37.125 138.188C37.125 147.262 44.55 154.688 53.625 154.688 62.7 154.688 70.125 147.262 70.125 138.188L70.125 74.25 82.5 74.25 82.5 138.188C82.5 147.262 89.925 154.688 99 154.688 108.075 154.688 115.5 147.262 115.5 138.188L115.5 74.25 127.875 74.25 127.875 138.188C127.875 147.262 135.3 154.688 144.375 154.688 153.45 154.688 160.875 147.262 160.875 138.188L160.875 74.25 173.25 74.25 173.25 162.938Z" fill="#000000" fill-rule="nonzero" fill-opacity="1" transform="matrix(1 0 0 1.08081 3185 387)"/></g></g></g></g></g></svg>