<svg width="2420" height="2200" xmlns="http://www.w3.org/2000/svg" xmlns:xlink="http://www.w3.org/1999/xlink" xml:space="preserve" overflow="hidden"><g transform="translate(-1576 -132)"><g><path d="M1884.5 1003.5C1884.5 525.221 2287.67 137.5 2785 137.5 3282.33 137.5 3685.5 525.221 3685.5 1003.5 3685.5 1481.78 3282.33 1869.5 2785 1869.5 2287.67 1869.5 1884.5 1481.78 1884.5 1003.5Z" stroke="#000000" stroke-width="3.4375" stroke-linecap="butt" stroke-linejoin="round" stroke-miterlimit="10" stroke-opacity="1" fill="#2E75B6" fill-rule="evenodd" fill-opacity="0.501961"/><path d="M2193.5 1464C2193.5 985.445 2596.44 597.5 3093.5 597.5 3590.56 597.5 3993.5 985.445 3993.5 1464 3993.5 1942.55 3590.56 2330.5 3093.5 2330.5 2596.44 2330.5 2193.5 1942.55 2193.5 1464Z" stroke="#000000" stroke-width="3.4375" stroke-linecap="butt" stroke-linejoin="round" stroke-miterlimit="10" stroke-opacity="1" fill="#2E75B6" fill-rule="evenodd" fill-opacity="0.501961"/><path d="M1581.5 1464C1581.5 985.445 1984.67 597.5 2482 597.5 2979.33 597.5 3382.5 985.445 3382.5 1464 3382.5 1942.55 2979.33 2330.5 2482 2330.5 1984.67 2330.5 1581.5 1942.55 1581.5 1464Z" stroke="#000000" stroke-width="3.4375" stroke-linecap="butt" stroke-linejoin="round" stroke-miterlimit="10" stroke-opacity="1" fill="#2E75B6" fill-rule="evenodd" fill-opacity="0.501961"/><text fill="#000000" fill-opacity="1" font-family="Univers Condensed Light,Univers Condensed Light_MSFontService,sans-serif" font-style="normal" font-variant="normal" font-weight="300" font-stretch="condensed" font-size="83" text-anchor="start" direction="ltr" writing-mode="lr-tb" unicode-bidi="normal" text-decoration="none" transform="matrix(1 0 0 1 2713.68 416)">Data</text><text fill="#000000" fill-opacity="1" font-family="Univers Condensed Light,Univers Condensed Light_MSFontService,sans-serif" font-style="normal" font-variant="normal" font-weight="300" font-stretch="condensed" font-size="83" text-anchor="start" direction="ltr" writing-mode="lr-tb" unicode-bidi="normal" text-decoration="none" transform="matrix(1 0 0 1 1894.92 1817)">Known </text><text fill="#000000" fill-opacity="1" font-family="Univers Condensed Light,Univers Condensed Light_MSFontService,sans-serif" font-style="normal" font-variant="normal" font-weight="300" font-stretch="condensed" font-size="83" text-anchor="start" direction="ltr" writing-mode="lr-tb" unicode-bidi="normal" text-decoration="none" transform="matrix(1 0 0 1 1812.42 1916)">mechanisms</text><text fill="#000000" fill-opacity="1" font-family="Univers Condensed Light,Univers Condensed Light_MSFontService,sans-serif" font-style="normal" font-variant="normal" font-weight="300" font-stretch="condensed" font-size="83" text-anchor="start" direction="ltr" writing-mode="lr-tb" unicode-bidi="normal" text-decoration="none" transform="matrix(1 0 0 1 3509.71 1817)">Known </text><text fill="#000000" fill-opacity="1" font-family="Univers Condensed Light,Univers Condensed Light_MSFontService,sans-serif" font-style="normal" font-variant="normal" font-weight="300" font-stretch="condensed" font-size="83" text-anchor="start" direction="ltr" writing-mode="lr-tb" unicode-bidi="normal" text-decoration="none" transform="matrix(1 0 0 1 3447.84 1916)">hierarchies</text><text fill="#000000" fill-opacity="1" font-family="Univers Condensed Light,Univers Condensed Light_MSFontService,sans-serif" font-style="normal" font-variant="normal" font-weight="300" font-stretch="condensed" font-size="128" text-anchor="start" direction="ltr" writing-mode="lr-tb" unicode-bidi="normal" text-decoration="none" transform="matrix(1 0 0 1 2520.2 1413)">DeepPumas</text></g></g></svg>