<?xml version="1.0" encoding="UTF-8"?>
<svg id="Layer_1" data-name="Layer 1" xmlns="http://www.w3.org/2000/svg" viewBox="0 0 381.99 98.81">
  <defs>
    <style>
      .cls-1 {
        fill: none;
      }

      .cls-2 {
        fill: #6b00c7;
      }
    </style>
  </defs>
  <g>
    <path class="cls-2" d="m70.13,30.36v39.8c10.97,0,19.86-8.91,19.86-19.9s-8.89-19.9-19.86-19.9Z"/>
    <path class="cls-2" d="m70.13,17.04c-14.62.91-26.24,13.11-26.24,28h10.95c0-8.83,6.72-16.12,15.29-16.99v-11Z"/>
    <path class="cls-2" d="m70.13,71.98c-14.54-.35-26.26-12.3-26.26-26.94h-10.95c0,20.7,16.63,37.58,37.21,37.92v-10.97Z"/>
    <path class="cls-2" d="m106.7,32.76h11.11c4.84,0,8.49,1.42,10.86,4.27,2.37,2.85,3.55,6.91,3.55,12.2s-1.24,9.61-3.7,12.4c-2.47,2.85-6.17,4.22-11.17,4.22h-10.65v-33.09Zm10.39,28.16c1.34,0,2.57-.1,3.6-.41,1.03-.25,1.85-.76,2.57-1.58.67-.81,1.18-1.93,1.54-3.35.31-1.42.51-3.25.51-5.59v-1.98c0-2.08-.21-3.76-.51-5.08-.36-1.32-.87-2.34-1.54-3.1-.72-.71-1.6-1.22-2.62-1.52-1.03-.25-2.26-.41-3.65-.41h-3.76v23.02h3.86Z"/>
    <path class="cls-2" d="m142.58,54.37c0,1.42.15,2.64.36,3.56.21.97.57,1.73,1.03,2.34.46.61,1.08,1.02,1.85,1.22.72.25,1.65.36,2.73.36,1.29,0,2.52-.15,3.7-.51,1.18-.3,2.37-.71,3.5-1.17l.82,4.37c-.82.46-1.96.91-3.45,1.37-1.49.46-3.14.66-4.99.66-3.96,0-6.89-1.17-8.85-3.56-1.96-2.34-2.93-5.85-2.93-10.52s.98-8.13,2.98-10.47c2.01-2.34,4.73-3.51,8.13-3.51,1.8,0,3.34.3,4.63.86,1.24.61,2.26,1.42,3.09,2.54.82,1.12,1.39,2.44,1.8,3.96.36,1.58.57,3.35.57,5.29v3.2h-14.97Zm9.31-4.02v-.91c0-2.44-.36-4.17-1.03-5.18-.72-.97-1.8-1.47-3.34-1.47-.82,0-1.49.15-2.06.36-.62.25-1.08.66-1.49,1.22-.41.61-.72,1.37-.93,2.34-.21.97-.36,2.19-.41,3.66h9.26Z"/>
    <path class="cls-2" d="m167.75,54.37c0,1.42.15,2.64.36,3.56.21.97.57,1.73,1.03,2.34.46.61,1.08,1.02,1.85,1.22.72.25,1.65.36,2.73.36,1.29,0,2.52-.15,3.7-.51,1.18-.3,2.37-.71,3.5-1.17l.82,4.37c-.82.46-1.96.91-3.45,1.37-1.49.46-3.14.66-4.99.66-3.96,0-6.89-1.17-8.85-3.56-1.96-2.34-2.93-5.85-2.93-10.52s.98-8.13,2.99-10.47c2.01-2.34,4.73-3.51,8.13-3.51,1.8,0,3.34.3,4.63.86,1.24.61,2.26,1.42,3.09,2.54.82,1.12,1.39,2.44,1.8,3.96.36,1.58.57,3.35.57,5.29v3.2h-14.97Zm9.31-4.02v-.91c0-2.44-.36-4.17-1.03-5.18-.72-.97-1.8-1.47-3.34-1.47-.82,0-1.49.15-2.06.36-.62.25-1.08.66-1.49,1.22-.41.61-.72,1.37-.93,2.34-.21.97-.36,2.19-.41,3.66h9.26Z"/>
    <path class="cls-2" d="m196.69,39.37c.46-.2,1.03-.41,1.75-.61.67-.15,1.49-.25,2.52-.25,3.09,0,5.35,1.22,6.84,3.61,1.49,2.44,2.26,5.9,2.26,10.37s-.77,7.83-2.26,10.01c-1.49,2.24-3.91,3.3-7.2,3.3-1.44,0-2.62-.2-3.65-.61-1.03-.41-1.9-.86-2.63-1.42v10.32h-6.02v-35.02h3.96l1.8,3.2,2.62-2.9Zm-2.37,21.09c.57.36,1.24.71,2.06,1.02.77.3,1.65.46,2.68.46,1.65,0,2.88-.61,3.65-1.88.77-1.27,1.18-3.46,1.18-6.51v-2.39c0-2.85-.41-4.88-1.18-6.1-.77-1.17-1.96-1.78-3.5-1.78-.93,0-1.75.15-2.57.41-.82.25-1.6.61-2.32,1.02v15.76Z"/>
    <path class="cls-2" d="m216.51,32.76h10.29c1.85,0,3.46.25,4.84.76,1.37.51,2.5,1.22,3.4,2.13.89.91,1.54,2,1.96,3.25.45,1.25.67,2.63.67,4.12s-.22,2.83-.67,4.12c-.41,1.25-1.06,2.35-1.96,3.3-.86.95-1.97,1.69-3.34,2.24-1.37.54-3,.81-4.89.81h-6.02v12.35h-4.27v-33.09Zm9.93,17.69c2.44,0,4.15-.54,5.15-1.63,1-1.12,1.49-2.95,1.49-5.49v-.61c0-2.47-.51-4.18-1.54-5.13-1.03-.98-2.76-1.47-5.2-1.47h-5.56v14.33h5.66Z"/>
    <path class="cls-2" d="m257.89,39.32h3.96v26.53h-2.26l-1.6-3.15-2.26,2.64c-.58.27-1.3.51-2.16.71-.86.24-1.85.36-2.98.36-2.13,0-3.86-.64-5.2-1.93-1.3-1.32-1.96-3.47-1.96-6.46v-18.7h3.96v19.31c0,1.8.38,3.03,1.13,3.71.79.68,1.8,1.02,3.04,1.02,1.41,0,2.57-.19,3.5-.56.96-.41,1.9-.97,2.83-1.68v-21.81Z"/>
    <path class="cls-2" d="m289.98,39.98c.52-.27,1.18-.53,2.01-.76.82-.27,1.77-.41,2.83-.41,2.2,0,3.91.64,5.15,1.93,1.27,1.29,1.9,3.42,1.9,6.4v18.7h-3.96v-19.31c0-1.73-.36-2.91-1.08-3.56-.69-.64-1.68-.97-2.99-.97s-2.35.22-3.24.66c-.86.41-1.77.95-2.73,1.63v21.55h-3.96v-19.31c0-1.73-.38-2.91-1.13-3.56-.75-.64-1.73-.97-2.93-.97s-2.32.2-3.24.61c-.89.37-1.82.9-2.78,1.58v21.65h-3.96v-26.53h2.26l1.54,3.25,2.32-2.59c.55-.27,1.22-.53,2.01-.76.82-.27,1.78-.41,2.88-.41,1,0,1.85.1,2.57.31.75.2,1.46.49,2.11.86l1.85,2.8,2.57-2.8Z"/>
    <path class="cls-2" d="m322.27,47.4c0-.75-.07-1.44-.21-2.08-.14-.64-.38-1.19-.72-1.63-.31-.47-.77-.85-1.39-1.12-.58-.27-1.34-.41-2.26-.41-1.3,0-2.59.17-3.86.51-1.23.3-2.56.69-3.96,1.17l-.62-3.05c1.24-.54,2.54-1,3.91-1.37,1.37-.41,2.93-.61,4.68-.61,2.99,0,5.11.8,6.38,2.39,1.3,1.56,1.96,4.08,1.96,7.57v12.96c0,.75.14,1.25.41,1.52.28.24.72.36,1.34.36h1.03l.1,2.08c-.24.17-.58.32-1.03.46-.45.17-.98.25-1.6.25-.72,0-1.44-.14-2.16-.41l-1.8-2.85-2.37,2.59c-.51.24-1.15.42-1.9.56-.72.17-1.53.25-2.42.25-1.06,0-2.08-.14-3.04-.41-.93-.27-1.75-.69-2.47-1.27-.69-.61-1.23-1.39-1.65-2.34-.41-.98-.62-2.19-.62-3.61,0-1.32.19-2.46.57-3.41.38-.98.94-1.8,1.7-2.44.79-.64,1.78-1.15,2.99-1.52,1.24-.37,2.68-.64,4.32-.81l4.68-.41v-2.95Zm0,5.39l-4.43.46c-2.13.24-3.65.75-4.58,1.52-.93.75-1.39,2.03-1.39,3.86v.36c0,1.66.39,2.85,1.18,3.56.82.71,2.06,1.07,3.7,1.07,1.44,0,2.57-.25,3.4-.76.86-.51,1.56-1.08,2.11-1.73v-8.34Z"/>
    <path class="cls-2" d="m340.4,66.56c-1.78,0-3.31-.19-4.58-.56-1.23-.34-2.25-.71-3.04-1.12l.57-2.95c.89.37,1.9.73,3.04,1.07,1.17.34,2.42.51,3.76.51,1.65,0,2.93-.32,3.86-.97.93-.68,1.39-1.86,1.39-3.56,0-.78-.08-1.42-.26-1.93-.17-.51-.48-.93-.93-1.27-.45-.37-1.06-.69-1.85-.97-.79-.31-1.82-.63-3.09-.97-.96-.27-1.85-.58-2.68-.91-.79-.37-1.47-.85-2.06-1.42-.55-.58-1-1.27-1.34-2.08-.31-.85-.46-1.86-.46-3.05,0-2.54.75-4.44,2.26-5.69,1.54-1.25,3.6-1.88,6.17-1.88,1.58,0,2.95.15,4.12.46,1.2.3,2.2.66,2.98,1.07l-.62,2.9c-.51-.17-1.01-.32-1.49-.46-.45-.17-.91-.31-1.39-.41-.48-.1-1.01-.19-1.6-.25-.55-.07-1.17-.1-1.85-.1-1.61,0-2.83.29-3.65.86-.82.54-1.24,1.64-1.24,3.3,0,.75.1,1.36.31,1.83.21.47.51.88.93,1.22.45.31,1.03.58,1.75.81.72.24,1.59.49,2.62.76,1.2.34,2.25.71,3.14,1.12.89.41,1.63.91,2.21,1.52.58.61,1.03,1.36,1.34,2.24.31.88.46,1.93.46,3.15,0,2.24-.74,4.08-2.21,5.54-1.44,1.46-3.64,2.19-6.59,2.19Z"/>
  </g>
  <rect class="cls-1" y="0" width="381.99" height="98.79"/>
</svg>